# 3ds Max Wavefront OBJ Exporter v0.97b - (c)2007 guruware
# File Created: 10.05.2022 18:55:15

mtllib cube2.mtl

#
# object Cube
#

v  0.0046 -0.0046 0.0046
v  -0.0046 -0.0046 0.0046
v  -0.0046 -0.0046 -0.0046
v  0.0046 -0.0046 -0.0046
v  -0.0046 0.0046 -0.0046
v  -0.0046 0.0046 0.0046
v  0.0046 0.0046 0.0046
v  0.0046 0.0046 -0.0046
# 8 vertices

vn 0.0000 -1.0000 0.0000
vn 0.0000 1.0000 0.0000
vn 1.0000 0.0000 0.0000
vn -0.0000 -0.0000 1.0000
vn -1.0000 -0.0000 -0.0000
vn 0.0000 0.0000 -1.0000
# 6 vertex normals

vt 0.6244 0.5006 0.0000
vt 0.6244 0.7494 0.0000
vt 0.3756 0.7494 0.0000
vt 0.3756 0.5006 0.0000
vt 0.3756 0.0031 0.0000
vt 0.6244 0.0031 0.0000
vt 0.6244 0.2519 0.0000
vt 0.3756 0.2519 0.0000
vt 0.8731 0.9981 0.0000
vt 0.6244 0.9981 0.0000
vt 0.8731 0.7494 0.0000
vt 0.3756 0.9981 0.0000
vt 0.1269 0.7494 0.0000
vt 0.1269 0.9981 0.0000
# 14 texture coords

o Cube
g Cube
usemtl Material
s off
f 1/1/1 2/2/1 3/3/1 4/4/1 
f 5/5/2 6/6/2 7/7/2 8/8/2 
f 8/8/3 7/7/3 1/1/3 4/4/3 
f 7/9/4 6/10/4 2/2/4 1/11/4 
f 6/10/5 5/12/5 3/3/5 2/2/5 
f 4/13/6 3/3/6 5/12/6 8/14/6 
# 6 polygons

